<svg version="1.1" id="Layer_1" xmlns="http://www.w3.org/2000/svg" xmlns:xlink="http://www.w3.org/1999/xlink" x="0px" y="0px"
	 viewBox="0 0 512 512" style="enable-background:new 0 0 512 512;" xml:space="preserve">
<path style="fill:#A4A9AD;" d="M78.61,166.146c-4.567,0-8.27-3.703-8.27-8.27v-34.715c0-4.568,3.703-8.27,8.27-8.27
	s8.27,3.701,8.27,8.27v34.714C86.88,162.443,83.178,166.146,78.61,166.146z"/>
<path style="opacity:0.1;enable-background:new    ;" d="M78.61,114.892c-4.567,0-8.27,3.701-8.27,8.27v14.517H86.88v-14.517
	C86.88,118.595,83.178,114.892,78.61,114.892z"/>
<path style="fill:#A4A9AD;" d="M304.693,166.146c-4.567,0-8.27-3.703-8.27-8.27v-34.715c0-4.568,3.703-8.27,8.27-8.27
	c4.567,0,8.27,3.701,8.27,8.27v34.714C312.963,162.443,309.26,166.146,304.693,166.146z"/>
<path style="opacity:0.1;enable-background:new    ;" d="M304.693,114.892c-4.567,0-8.27,3.701-8.27,8.27v14.517h16.539v-14.517
	C312.963,118.595,309.26,114.892,304.693,114.892z"/>
<path style="fill:#A4A9AD;" d="M326.201,128.123H57.104c-4.567,0-8.27-3.703-8.27-8.27c0-4.568,3.703-8.27,8.27-8.27h269.097
	c4.567,0,8.27,3.702,8.27,8.27C334.47,124.421,330.768,128.123,326.201,128.123z"/>
<rect x="442.824" y="186.75" style="fill:#333E48;" width="16.539" height="52.187"/>
<path style="opacity:0.2;enable-background:new    ;" d="M442.828,186.745v16.623c2.593,0.894,5.373,1.387,8.27,1.387
	s5.676-0.492,8.27-1.387v-16.623H442.828z"/>
<circle style="fill:#A4A9AD;" cx="451.093" cy="179.395" r="16.906"/>
<path style="fill:#0071CE;" d="M478.023,236.897H359.165l-11.571-68.207c-1.77-10.429-11.871-18.961-22.448-18.961H66.197
	c-10.579,0-20.68,8.532-22.448,18.961L17.08,325.893c-1.77,10.429,5.438,18.961,16.016,18.961h444.928
	c10.579,0,19.232-8.654,19.232-19.232v-69.493C497.256,245.552,488.601,236.897,478.023,236.897z"/>
<rect x="457.775" y="286.603" style="fill:#FFB819;" width="39.479" height="26.798"/>
<path style="fill:#FFFFFF;" d="M464.027,313.4h-9.081c-2.116,0-3.847-1.73-3.847-3.846v-19.105c0-2.116,1.731-3.846,3.847-3.846
	h9.081V313.4z"/>
<polygon style="fill:#FFB819;" points="23.745,286.603 19.199,313.4 53.583,313.4 53.583,286.603 "/>
<path style="fill:#FFFFFF;" d="M47.332,313.4h9.081c2.116,0,3.846-1.73,3.846-3.846v-19.105c0-2.116-1.73-3.846-3.846-3.846h-9.081
	V313.4z"/>
<path style="opacity:0.1;enable-background:new    ;" d="M194.191,344.855c0-37.382-30.304-67.688-67.688-67.688
	c-37.382,0-67.688,30.304-67.688,67.688H194.191z"/>
<circle style="fill:#333E48;" cx="126.504" cy="344.855" r="55.561"/>
<circle style="fill:#A4A9AD;" cx="126.504" cy="344.855" r="28.161"/>
<path style="opacity:0.1;enable-background:new    ;" d="M438.653,344.855c0-37.382-30.304-67.688-67.688-67.688
	c-37.382,0-67.688,30.304-67.688,67.688H438.653z"/>
<circle style="fill:#333E48;" cx="370.966" cy="344.855" r="55.561"/>
<g>
	<circle style="fill:#A4A9AD;" cx="370.966" cy="344.855" r="28.162"/>
	<path style="fill:#A4A9AD;" d="M512,340.325c0,5.641-4.616,10.258-10.257,10.258h-23.079c-5.641,0-10.258-4.616-10.258-10.258
		v-16.667c0-5.641,4.616-10.258,10.258-10.258h23.079c5.641,0,10.257,4.616,10.257,10.258V340.325z"/>
	<path style="fill:#A4A9AD;" d="M43.592,340.325c0,5.641-4.617,10.258-10.258,10.258H10.257C4.616,350.583,0,345.967,0,340.325
		v-16.667c0-5.641,4.614-10.258,10.257-10.258h23.079c5.641,0,10.258,4.616,10.258,10.258v16.667H43.592z"/>
</g>
<g>
	<path style="fill:#333E48;" d="M225.442,180.545c0-4.85,3.969-8.821,8.821-8.821h72.322c4.852,0,8.821,3.971,8.821,8.821v39.838
		c0,4.852-3.969,8.821-8.821,8.821h-72.322c-4.852,0-8.821-3.969-8.821-8.821V180.545z"/>
	<path style="fill:#333E48;" d="M77.996,180.422c0.812-4.783,5.445-8.697,10.296-8.697H167.2c4.852,0,8.821,3.971,8.821,8.821
		v39.838c0,4.852-3.969,8.821-8.821,8.821H78.542c-4.852,0-8.157-3.913-7.346-8.696L77.996,180.422z"/>
</g>
<g>
	<path style="fill:#00B3E3;" d="M263.051,260.071h-29.916c-4.567,0-8.27-3.701-8.27-8.27c0-4.567,3.703-8.27,8.27-8.27h29.916
		c4.567,0,8.27,3.703,8.27,8.27C271.321,256.369,267.618,260.071,263.051,260.071z"/>
	<path style="fill:#00B3E3;" d="M102.145,260.071H72.227c-4.567,0-8.27-3.701-8.27-8.27c0-4.567,3.703-8.27,8.27-8.27h29.917
		c4.567,0,8.27,3.703,8.27,8.27C110.414,256.369,106.712,260.071,102.145,260.071z"/>
</g>
<path style="opacity:0.1;enable-background:new    ;" d="M306.585,171.724h-72.322c-4.852,0-8.821,3.971-8.821,8.821v9.875
	c0-4.85,3.969-8.821,8.821-8.821h72.322c4.852,0,8.821,3.971,8.821,8.821v-9.875C315.406,175.695,311.436,171.724,306.585,171.724z"
	/>
<path style="opacity:0.1;enable-background:new    ;" d="M167.201,171.724H88.292c-4.852,0-9.485,3.914-10.296,8.697l-1.591,9.379
	c1.038-4.554,5.505-8.201,10.186-8.201H167.2c4.852,0,8.821,3.971,8.821,8.821v-9.875
	C176.022,175.695,172.052,171.724,167.201,171.724z"/>
</svg>