<svg version="1.1" id="Layer_1" xmlns="http://www.w3.org/2000/svg" xmlns:xlink="http://www.w3.org/1999/xlink" x="0px" y="0px"
	 viewBox="0 0 512 512" style="enable-background:new 0 0 512 512;" xml:space="preserve">
<path style="fill:#00B7C0;" d="M199.091,292.609c-9.327,0-16.888-7.561-16.888-16.888V69.087c0-9.327,7.561-16.888,16.888-16.888
	c9.327,0,16.888,7.561,16.888,16.888v206.634C215.979,285.048,208.419,292.609,199.091,292.609z"/>
<path style="fill:#E61F00;" d="M43.146,337.32H11.17c-4.405,0-7.977-3.571-7.977-7.977v-49.39c0-4.405,3.571-7.977,7.977-7.977
	h31.977C43.146,271.976,43.146,337.32,43.146,337.32z"/>
<path style="fill:#9E1400;" d="M3.193,304.648v24.696c0,4.405,3.571,7.977,7.977,7.977h31.977v-32.672H3.193z"/>
<path style="fill:#FFA81D;" d="M512,291.135c0-17.291-14.018-31.309-31.309-31.309H455.22v62.618h25.471
	C497.982,322.444,512,308.427,512,291.135z"/>
<path style="fill:#FF8600;" d="M455.22,322.444h25.471c17.291,0,31.309-14.017,31.309-31.309h-56.78V322.444z"/>
<path style="fill:#3E3E42;" d="M367.673,288.863c-4.42,0-8.833-1.724-12.147-5.153l-71.99-74.504
	c-6.482-6.707-6.298-17.398,0.41-23.879c6.707-6.482,17.398-6.297,23.879,0.41l71.99,74.504c6.482,6.707,6.298,17.398-0.41,23.879
	C376.128,287.287,371.897,288.863,367.673,288.863z"/>
<path style="fill:#999898;" d="M272.443,232.699c-3.946,0-7.908-1.375-11.111-4.176c-7.021-6.14-7.734-16.809-1.594-23.83
	l38.498-44.015c6.142-7.02,16.811-7.734,23.83-1.593c7.021,6.14,7.733,16.809,1.594,23.83l-38.498,44.015
	C281.823,230.746,277.145,232.699,272.443,232.699z"/>
<path style="fill:#00F9FF;" d="M367.671,288.863H71.233c-4.939,0-9.631-2.162-12.838-5.916c-3.21-3.755-4.614-8.725-3.843-13.604
	l28.119-202.89c1.296-8.209,8.372-14.254,16.681-14.254h234.243c8.103,0,15.065,5.755,16.586,13.715l34.075,202.889
	c0.947,4.945-0.363,10.054-3.571,13.935C377.478,286.617,372.705,288.863,367.671,288.863z M90.996,255.087h256.25L319.632,85.975
	H113.784L90.996,255.087z"/>
<path style="fill:#00B7C0;" d="M384.257,268.802L350.183,65.913c-1.522-7.959-8.483-13.715-16.586-13.715h-86.005v33.776h72.041
	l27.613,169.113H247.59v33.776h120.08c5.035,0,9.807-2.246,13.016-6.126C383.894,278.855,385.204,273.746,384.257,268.802z"/>
<path style="fill:#00F9FF;" d="M450.023,228.59H46.335c-14.018,0-25.382,11.364-25.382,25.382v122.273
	c0,14.018,11.364,25.383,25.382,25.383h403.688c14.018,0,25.383-11.364,25.383-25.383V253.972
	C475.405,239.954,464.041,228.59,450.023,228.59z"/>
<path style="fill:#30767A;" d="M210.818,401.627H49.556c0-44.531,36.1-80.631,80.631-80.631S210.818,357.096,210.818,401.627z"/>
<path style="fill:#00B7C0;" d="M450.023,228.589H247.591v173.038h202.432c14.018,0,25.383-11.364,25.383-25.383V253.972
	C475.405,239.954,464.041,228.589,450.023,228.589z"/>
<path style="fill:#30767A;" d="M452.901,401.627H291.639c0-44.531,36.1-80.631,80.631-80.631S452.901,357.096,452.901,401.627z"/>
<g class="car-wheel">
	<circle style="fill:#E1E1E3;" cx="130.183" cy="401.628" r="41.287"/>
	<path style="fill:#3D3D3D;" d="M130.186,459.802c-32.078,0-58.175-26.097-58.175-58.175s26.097-58.175,58.175-58.175
		s58.175,26.097,58.175,58.175S162.264,459.802,130.186,459.802z M130.186,377.227c-13.454,0-24.4,10.946-24.4,24.4
		c0,13.454,10.946,24.4,24.4,24.4c13.454,0,24.4-10.946,24.4-24.4C154.586,388.173,143.64,377.227,130.186,377.227z"/>
	<circle style="fill:#E1E1E3;" cx="372.265" cy="401.628" r="41.287"/>
	<path style="fill:#ACACB2;" d="M130.188,360.34v82.575c22.802,0,41.287-18.484,41.287-41.287S152.99,360.34,130.188,360.34z"/>
	<path style="fill:#3D3D3D;" d="M372.271,459.802c-32.078,0-58.175-26.097-58.175-58.175s26.097-58.175,58.175-58.175
		s58.175,26.097,58.175,58.175S404.349,459.802,372.271,459.802z M372.271,377.227c-13.454,0-24.4,10.946-24.4,24.4
		c0,13.454,10.946,24.4,24.4,24.4c13.454,0,24.4-10.946,24.4-24.4C396.67,388.173,385.725,377.227,372.271,377.227z"/>
	<path style="fill:#1E1E1E;" d="M130.186,343.452v33.776c13.454,0,24.4,10.946,24.4,24.4c0,13.454-10.946,24.4-24.4,24.4v33.776
		c32.078,0,58.175-26.097,58.175-58.175S162.264,343.452,130.186,343.452z"/>
	<path style="fill:#ACACB2;" d="M372.271,360.34v82.575c22.802,0,41.288-18.484,41.288-41.287S395.073,360.34,372.271,360.34z"/>
		<path style="fill:#1E1E1E;" d="M372.271,343.452L372.271,343.452v33.776l0,0c13.454,0,24.4,10.946,24.4,24.4
		c0,13.454-10.946,24.4-24.4,24.4l0,0v33.776l0,0c32.078,0,58.175-26.097,58.175-58.175S404.349,343.452,372.271,343.452z"/>
</g>
<g>
	<path style="fill:#1E1E1E;" d="M487.307,415.467h-17.835c-7.871,0-14.252-6.381-14.252-14.252v-42.887
		c0-7.871,6.381-14.252,14.252-14.252h17.835c7.871,0,14.252,6.381,14.252,14.252v42.887
		C501.559,409.086,495.177,415.467,487.307,415.467z"/>
</g>
<path style="fill:#3D3D3D;" d="M32.087,415.467H14.252C6.381,415.467,0,409.086,0,401.215v-42.887
	c0-7.871,6.381-14.252,14.252-14.252h17.835c7.871,0,14.252,6.381,14.252,14.252v42.887
	C46.339,409.086,39.958,415.467,32.087,415.467z"/>
</svg>