<svg version="1.1" id="Layer_1" xmlns="http://www.w3.org/2000/svg" xmlns:xlink="http://www.w3.org/1999/xlink" x="0px" y="0px"
	 viewBox="0 0 496.256 496.256" style="enable-background:new 0 0 496.256 496.256;" xml:space="preserve">
<path style="fill:#D81E61;" d="M26.656,260.128c0,4-3.2,8-8,8h-0.8c-4,0-8-3.2-8-8v-19.2c0-4,3.2-8,8-8h0.8c4,0,8,3.2,8,8V260.128z"
	/>
<path style="fill:#172F44;" d="M476.256,226.528c0-7.2-5.6-12-12-12h-102.4l-17.6-40c0-4-3.2-8-8-8h-215.2c-4,0-8,3.2-8,8
	l-17.6,39.2h-63.2c-7.2,0-12,5.6-12,12l-16,58.4c0,7.2,5.6,12,12,12h464c7.2,0,12-5.6,12-12L476.256,226.528z"/>
<path d="M4.256,284.928c0,7.2,5.6,12,12,12h464c7.2,0,12-5.6,12-12l-9.6-36h-468L4.256,284.928z"/>
<g>
	<path style="fill:#90A09F;" d="M492.256,289.728c0,0.8-0.8,2.4-2.4,2.4h-17.6c-0.8,0-2.4-0.8-2.4-2.4v-38.4c0-0.8,0.8-2.4,2.4-2.4
		h17.6c0.8,0,2.4,0.8,2.4,2.4V289.728z"/>
	<path style="fill:#90A09F;" d="M496.256,294.528c0,4-3.2,8-8,8h-480c-4,0-8-3.2-8-8l0,0c0-4-1.6-8,3.2-8h484.8
		C493.056,286.528,496.256,289.728,496.256,294.528L496.256,294.528z"/>
</g>
<path style="fill:#ADC4C3;" d="M8.256,293.728h480c3.2,0,4.8-1.6,6.4-4c-1.6-2.4-4-4-6.4-4H3.456c-1.6,0-2.4,0.8-2.4,0.8
	C1.856,291.328,4.256,293.728,8.256,293.728z"/>
<path d="M59.456,296.928c0-19.2,15.2-34.4,34.4-34.4s34.4,15.2,34.4,34.4"/>
<path style="fill:#ADC4C3;" d="M129.856,296.928h-2.4c0-18.4-15.2-32.8-32.8-32.8c-18.4,0-32.8,15.2-32.8,32.8h-4c0-20,16-36,36-36
	S129.856,276.928,129.856,296.928z"/>
<g class="car-wheel">
	<circle style="fill:#203547;" cx="93.856" cy="298.528" r="31.2"/>
	<path style="fill:#122130;" d="M115.456,276.128c12,12,12,32,0,44s-32,12-44,0"/>
	<path style="fill:#6E7577;" d="M113.056,298.528c0,11.2-8.8,19.2-19.2,19.2c-11.2,0-20-8.8-20-19.2c0-11.2,8.8-20,20-20
		C104.256,278.528,113.056,287.328,113.056,298.528z"/>
	<path style="fill:#4C5456;" d="M107.456,284.128c8,8,8,20,0,28s-20,8-28,0"/>
	<circle style="fill:#CED8DD;" cx="93.856" cy="298.528" r="16.8"/>
	<path style="fill:#B2BBC1;" d="M105.856,285.728c6.4,6.4,6.4,17.6,0,24s-17.6,6.4-24,0"/>
	<path style="opacity:0.2;fill:#888F91;enable-background:new    ;" d="M101.856,298.528c0,4.8-3.2,9.6-8,9.6c-4,0-8-4.8-8-9.6
		s3.2-8,8-8C97.856,290.528,101.856,293.728,101.856,298.528z"/>
	<circle style="fill:#E7EFF2;" cx="93.856" cy="298.528" r="8"/>
	<path style="fill:#DAE6EA;" d="M93.856,290.528c4,0,8,3.2,8,8s-3.2,8-8,8"/>
	<path style="fill:#666E70;" d="M93.856,280.928c-0.8,0-1.6,0-2.4,0c0,2.4,1.6,4,2.4,4s1.6-1.6,2.4-4
		C95.456,280.928,94.656,280.928,93.856,280.928z"/>
	<path style="fill:#535A5B;" d="M93.856,285.728c0.8,0,1.6-1.6,2.4-4c-0.8,0-1.6,0-2.4,0"/>
	<path style="fill:#666E70;" d="M91.456,315.328c1.6,0,3.2,0,4.8,0c0-2.4-1.6-4-2.4-4C92.256,310.528,91.456,312.928,91.456,315.328z
		"/>
	<path style="fill:#535A5B;" d="M96.256,315.328c0-2.4-1.6-4-2.4-4"/>
	<path style="fill:#666E70;" d="M80.256,288.128c1.6,1.6,4,2.4,4.8,1.6s0-2.4-1.6-4.8C81.856,285.728,81.056,286.528,80.256,288.128z
		"/>
	<path style="fill:#535A5B;" d="M85.056,288.928c0.8-0.8,0-2.4-1.6-4.8"/>
	<path style="fill:#666E70;" d="M107.456,308.128c-1.6-1.6-4-2.4-4.8-1.6s0,2.4,1.6,4.8c0.8-0.8,1.6-0.8,1.6-1.6
		C106.656,309.728,106.656,308.928,107.456,308.128z"/>
	<path style="fill:#535A5B;" d="M105.856,310.528c0.8-0.8,0.8-0.8,1.6-1.6c-1.6-1.6-4-2.4-4.8-1.6"/>
	<path style="fill:#666E70;" d="M77.056,300.128c2.4,0,4-1.6,4-2.4s-1.6-1.6-4-2.4c0,0.8,0,1.6,0,2.4
		C76.256,298.528,76.256,299.328,77.056,300.128z"/>
	<path style="fill:#535A5B;" d="M81.056,298.528c0-0.8-1.6-1.6-4-2.4c0,0.8,0,1.6,0,2.4"/>
	<path style="fill:#666E70;" d="M106.656,298.528c0,0.8,1.6,1.6,4,2.4c0-1.6,0-3.2,0-4.8
		C108.256,296.128,106.656,296.928,106.656,298.528z"/>
	<path style="fill:#535A5B;" d="M110.656,296.128c-2.4,0-4,1.6-4,2.4"/>
	<path style="fill:#666E70;" d="M80.256,308.128c0.8,1.6,2.4,2.4,3.2,3.2c1.6-1.6,2.4-4,1.6-4.8
		C84.256,306.528,81.856,307.328,80.256,308.128z"/>
	<path style="fill:#535A5B;" d="M83.456,312.128c1.6-1.6,2.4-4,1.6-4.8"/>
	<path style="fill:#666E70;" d="M104.256,284.128c-1.6,1.6-2.4,4-1.6,4.8s2.4,0,4.8-1.6
		C106.656,286.528,105.056,285.728,104.256,284.128z"/>
	<path style="fill:#535A5B;" d="M104.256,284.128c-1.6,1.6-2.4,4-1.6,4.8"/>
</g>
<path d="M345.856,296.928c0-19.2,15.2-34.4,34.4-34.4c19.2,0,34.4,15.2,34.4,34.4"/>
<path style="fill:#ADC4C3;" d="M416.256,296.928h-2.4c0-18.4-15.2-32.8-32.8-32.8c-18.4,0-32.8,15.2-32.8,32.8h-4c0-20,16-36,36-36
	S416.256,276.928,416.256,296.928z"/>
<g class="car-wheel">
	<circle style="fill:#203547;" cx="380.256" cy="298.528" r="31.2"/>
	<path style="fill:#122130;" d="M401.856,276.128c12,12,12,32,0,44s-32,12-44,0"/>
	<path style="fill:#6E7577;" d="M399.456,298.528c0,11.2-8.8,19.2-19.2,19.2c-11.2,0-19.2-8.8-19.2-19.2c0-11.2,8.8-20,19.2-20
		C390.656,278.528,399.456,287.328,399.456,298.528z"/>
	<path style="fill:#4C5456;" d="M393.856,284.128c8,8,8,20,0,28s-20,8-28,0"/>
	<circle style="fill:#CED8DD;" cx="380.256" cy="298.528" r="16.8"/>
	<path style="fill:#B2BBC1;" d="M392.256,285.728c6.4,6.4,6.4,17.6,0,24s-17.6,6.4-24,0"/>
	<path style="opacity:0.2;fill:#888F91;enable-background:new    ;" d="M388.256,298.528c0,4.8-3.2,9.6-8,9.6c-4,0-8-4.8-8-9.6
		s3.2-8,8-8C384.256,290.528,388.256,293.728,388.256,298.528z"/>
	<circle style="fill:#E7EFF2;" cx="380.256" cy="298.528" r="8"/>
	<path style="fill:#DAE6EA;" d="M380.256,290.528c4,0,8,3.2,8,8s-3.2,8-8,8"/>
	<path style="fill:#666E70;" d="M380.256,280.928c-0.8,0-1.6,0-2.4,0c0,2.4,1.6,4,2.4,4s1.6-1.6,2.4-4
		C381.856,280.928,381.056,280.928,380.256,280.928z"/>
	<path style="fill:#535A5B;" d="M380.256,285.728c0.8,0,1.6-1.6,2.4-4c-0.8,0-1.6,0-2.4,0"/>
	<path style="fill:#666E70;" d="M377.856,315.328c1.6,0,3.2,0,4.8,0c0-2.4-1.6-4-2.4-4
		C379.456,310.528,377.856,312.928,377.856,315.328z"/>
	<path style="fill:#535A5B;" d="M382.656,315.328c0-2.4-1.6-4-2.4-4"/>
	<path style="fill:#666E70;" d="M366.656,288.128c1.6,1.6,4,2.4,4.8,1.6s0-2.4-1.6-4.8
		C368.256,285.728,367.456,286.528,366.656,288.128z"/>
	<path style="fill:#535A5B;" d="M371.456,288.928c0.8-0.8,0-2.4-1.6-4.8"/>
	<path style="fill:#666E70;" d="M393.856,308.128c-1.6-1.6-4-2.4-4.8-1.6s0,2.4,1.6,4.8c0.8-0.8,1.6-0.8,1.6-1.6
		C393.056,309.728,393.056,308.928,393.856,308.128z"/>
	<path style="fill:#535A5B;" d="M392.256,310.528c0.8-0.8,0.8-0.8,1.6-1.6c-1.6-1.6-4-2.4-4.8-1.6"/>
	<path style="fill:#666E70;" d="M363.456,300.128c2.4,0,4-1.6,4-2.4s-1.6-1.6-4-2.4c0,0.8,0,1.6,0,2.4
		C362.656,298.528,363.456,299.328,363.456,300.128z"/>
	<path style="fill:#535A5B;" d="M367.456,298.528c0-0.8-1.6-1.6-4-2.4c0,0.8,0,1.6,0,2.4"/>
	<path style="fill:#666E70;" d="M393.056,298.528c0,0.8,1.6,1.6,4,2.4c0-1.6,0-3.2,0-4.8
		C394.656,296.128,393.056,296.928,393.056,298.528z"/>
	<path style="fill:#535A5B;" d="M397.056,296.128c-2.4,0-4,1.6-4,2.4"/>
	<path style="fill:#666E70;" d="M366.656,308.128c0.8,1.6,2.4,2.4,3.2,3.2c1.6-1.6,2.4-4,1.6-4.8
		C370.656,306.528,368.256,307.328,366.656,308.128z"/>
	<path style="fill:#535A5B;" d="M369.856,312.128c1.6-1.6,2.4-4,1.6-4.8"/>
	<path style="fill:#666E70;" d="M390.656,284.128c-1.6,1.6-2.4,4-1.6,4.8s2.4,0,4.8-1.6
		C393.056,286.528,391.456,285.728,390.656,284.128z"/>
	<path style="fill:#535A5B;" d="M390.656,284.128c-1.6,1.6-2.4,4-1.6,4.8"/>
</g>
<g>
	<path style="fill:#51859B;" d="M318.656,213.728h44l-15.2-34.4h-28c-4,0-8,3.2-8,8v18.4
		C310.656,210.528,313.856,213.728,318.656,213.728z"/>
	<path style="fill:#51859B;" d="M95.456,213.728h47.2c4,0,8-3.2,8-8v-18.4c0-4-3.2-8-8-8h-31.2L95.456,213.728z"/>
	<path style="fill:#51859B;" d="M287.456,205.728c0,4-3.2,8-8,8h-99.2c-4,0-8-3.2-8-8v-18.4c0-4,3.2-8,8-8h99.2c4,0,8,3.2,8,8
		V205.728z"/>
</g>
<path style="fill:#172F44;" d="M354.656,219.328c0.8,2.4-0.8,4-2.4,4.8l0,0c-1.6,0-3.2-0.8-4-3.2l-9.6-41.6c-0.8-2.4,0.8-4,2.4-4.8
	l0,0c1.6,0,3.2,0.8,4,3.2L354.656,219.328z"/>
<path style="fill:#ADC4C3;" d="M200.256,228.128c0,0.8-0.8,1.6-1.6,1.6h-16.8c-0.8,0-1.6-0.8-1.6-1.6l0,0c0-0.8,0.8-1.6,1.6-1.6
	h16.8C199.456,225.728,200.256,226.528,200.256,228.128L200.256,228.128z"/>
<g>
	<path style="fill:#4D6C84;" d="M165.056,184.928C165.056,184.928,165.056,185.728,165.056,184.928l-8.8,0.8c-0.8,0-0.8,0-0.8-0.8
		l0,0c0-0.8,0-0.8,0.8-0.8L165.056,184.928C165.056,184.128,165.056,184.128,165.056,184.928L165.056,184.928z"/>
	<path style="fill:#4D6C84;" d="M165.056,188.928C165.056,189.728,165.056,189.728,165.056,188.928l-8.8,0.8c-0.8,0-0.8,0-0.8-0.8
		l0,0c0-0.8,0-0.8,0.8-0.8L165.056,188.928C165.056,188.128,165.056,188.928,165.056,188.928L165.056,188.928z"/>
	<path style="fill:#4D6C84;" d="M165.056,193.728C165.056,193.728,165.056,194.528,165.056,193.728l-8.8,0.8c-0.8,0-0.8,0-0.8-0.8
		l0,0c0-0.8,0-0.8,0.8-0.8L165.056,193.728C165.056,192.928,165.056,192.928,165.056,193.728L165.056,193.728z"/>
	<path style="fill:#4D6C84;" d="M302.656,184.928C302.656,184.928,302.656,185.728,302.656,184.928l-8.8,0.8c-0.8,0-0.8,0-0.8-0.8
		l0,0c0-0.8,0-0.8,0.8-0.8L302.656,184.928C302.656,184.128,302.656,184.128,302.656,184.928L302.656,184.928z"/>
	<path style="fill:#4D6C84;" d="M302.656,188.928C302.656,189.728,302.656,189.728,302.656,188.928l-8.8,0.8c-0.8,0-0.8,0-0.8-0.8
		l0,0c0-0.8,0-0.8,0.8-0.8L302.656,188.928C302.656,188.128,302.656,188.928,302.656,188.928L302.656,188.928z"/>
	<path style="fill:#4D6C84;" d="M302.656,193.728C302.656,193.728,302.656,194.528,302.656,193.728l-8.8,0.8c-0.8,0-0.8,0-0.8-0.8
		l0,0c0-0.8,0-0.8,0.8-0.8L302.656,193.728C302.656,192.928,302.656,192.928,302.656,193.728L302.656,193.728z"/>
</g>
<path style="fill:#FFAA00;" d="M482.656,255.328c0,3.2-2.4,6.4-6.4,6.4l0,0c-3.2,0-6.4-2.4-6.4-6.4v-23.2c0-3.2,2.4-6.4,6.4-6.4l0,0
	c3.2,0,6.4,2.4,6.4,6.4V255.328z"/>
</svg>