<svg version="1.1" id="Layer_1" xmlns="http://www.w3.org/2000/svg" xmlns:xlink="http://www.w3.org/1999/xlink" x="0px" y="0px"
	 viewBox="0 0 511.999 511.999" style="enable-background:new 0 0 511.999 511.999;" xml:space="preserve">
<g>
	<g>
		<circle style="fill:#6C686F;" cx="106.666" cy="401.484" r="42.666"/>
		<path style="fill:#6C686F;" d="M405.005,358.82c-23.412,0.177-42.336,19.21-42.336,42.664c0,23.563,19.103,42.664,42.666,42.664
			c23.563,0,42.666-19.101,42.666-42.664c0-23.563-19.103-42.668-42.666-42.668C405.225,358.816,405.116,358.816,405.005,358.82z"/>
	</g>
	<path style="fill:#2C5A7E;" d="M405.005,358.82c0.11-0.004,0.221-0.004,0.332-0.004c23.563,0,42.666,19.106,42.666,42.668h53.329
		V288.278H320.001V166.816h-42.666H10.669v234.668h53.329c0-23.563,19.103-42.668,42.666-42.668
		c23.565,0,42.666,19.106,42.666,42.668h213.339C362.67,378.03,381.592,358.997,405.005,358.82L405.005,358.82z M248.706,252.05
		l-19.022,26.349l0.704,30.027l-30.935-9.948l-28.339,9.948l-0.096-32.496l-18.222-23.88l30.875-10.135l17.081-24.704l19.179,26.234
		L248.706,252.05z"/>
	<polygon style="fill:#A9C4DA;" points="320.001,288.278 501.331,288.278 501.331,284.15 383.997,166.816 320.001,166.816 	"/>
	<polygon style="fill:#E8863B;" points="229.684,278.398 248.706,252.05 219.93,243.445 200.751,217.21 183.67,241.915
		152.795,252.05 171.017,275.93 171.113,308.426 199.453,298.478 230.388,308.426 	"/>
	<path style="fill:#BF2345;" d="M277.334,166.816h42.666v-21.333c0-11.731-9.6-21.331-21.335-21.331
		c-11.733,0-21.331,9.6-21.331,21.331L277.334,166.816L277.334,166.816z"/>
</g>
<g>
	<path style="fill:#000003;" d="M508.874,276.607L391.542,159.272c-2.001-2-4.716-3.124-7.545-3.124H330.67v-10.664
		c0-17.645-14.357-32-32.004-32c-17.645,0-32,14.355-32,32v10.664H10.669C4.776,156.148,0,160.924,0,166.817v234.668
		c0,5.891,4.776,10.669,10.669,10.669h43.734c4.957,24.313,26.506,42.664,52.263,42.664c25.757,0,47.306-18.351,52.262-42.664
		h194.146c4.958,24.313,26.505,42.664,52.262,42.664c25.757,0,47.307-18.351,52.264-42.664h43.731
		c5.89,0,10.669-4.777,10.669-10.669V284.15C512,281.321,510.874,278.608,508.874,276.607z M479.703,277.609H330.669V177.485h48.909
		L479.703,277.609z M288.003,145.483c0-5.881,4.784-10.662,10.664-10.662c5.881,0,10.664,4.782,10.664,10.662v10.664h-21.329
		V145.483z M106.666,433.481c-17.645,0-32-14.353-32-31.995c0-1.102,0.057-2.195,0.166-3.268
		c1.641-16.115,15.29-28.733,31.833-28.733c17.643,0,31.995,14.355,31.995,32c0,0.009,0.002,0.019,0.002,0.027
		C138.65,419.142,124.301,433.481,106.666,433.481z M405.336,433.481c-17.644,0-31.998-14.353-31.998-31.995
		c0-17.591,14.265-31.906,31.833-31.995h0.164c0.019,0,0.036-0.004,0.054-0.004c17.619,0.031,31.943,14.374,31.943,32
		c0,0.011,0.002,0.023,0.002,0.033C437.317,419.146,422.97,433.481,405.336,433.481z M457.6,390.816
		c-0.068-0.335-0.153-0.665-0.227-0.996c-0.106-0.471-0.207-0.942-0.325-1.406c-0.096-0.381-0.206-0.759-0.31-1.137
		c-0.115-0.417-0.229-0.833-0.355-1.246c-0.115-0.383-0.242-0.765-0.367-1.144c-0.132-0.402-0.266-0.8-0.405-1.198
		c-0.135-0.378-0.275-0.754-0.417-1.128c-0.15-0.394-0.304-0.783-0.463-1.171c-0.15-0.367-0.301-0.734-0.46-1.096
		c-0.17-0.392-0.347-0.778-0.526-1.163c-0.162-0.352-0.323-0.704-0.494-1.05c-0.198-0.404-0.406-0.8-0.615-1.198
		c-0.166-0.319-0.328-0.641-0.5-0.956c-0.307-0.56-0.629-1.113-0.957-1.663c-0.214-0.358-0.434-0.711-0.656-1.065
		c-0.28-0.446-0.56-0.892-0.852-1.329c-0.201-0.296-0.409-0.586-0.612-0.879c-0.258-0.367-0.514-0.735-0.781-1.096
		c-0.221-0.3-0.449-0.594-0.676-0.89c-0.266-0.344-0.533-0.688-0.808-1.025c-0.236-0.291-0.475-0.579-0.717-0.865
		c-0.282-0.334-0.567-0.663-0.857-0.988c-0.244-0.277-0.492-0.553-0.741-0.824c-0.304-0.33-0.615-0.652-0.927-0.973
		c-0.247-0.254-0.494-0.51-0.748-0.763c-0.344-0.339-0.696-0.669-1.049-1.001c-0.234-0.219-0.462-0.442-0.699-0.656
		c-0.544-0.49-1.098-0.969-1.661-1.438c-0.177-0.148-0.358-0.289-0.538-0.435c-0.488-0.396-0.979-0.785-1.481-1.163
		c-0.251-0.19-0.508-0.369-0.762-0.555c-0.4-0.29-0.799-0.579-1.207-0.859c-0.283-0.194-0.569-0.379-0.855-0.567
		c-0.393-0.258-0.786-0.512-1.185-0.761c-0.296-0.186-0.596-0.365-0.896-0.542c-0.402-0.24-0.809-0.473-1.219-0.702
		c-0.302-0.169-0.603-0.335-0.909-0.498c-0.426-0.227-0.857-0.446-1.29-0.663c-0.296-0.148-0.59-0.296-0.89-0.44
		c-0.479-0.227-0.964-0.442-1.45-0.656c-0.26-0.114-0.516-0.234-0.779-0.344c-0.748-0.315-1.502-0.615-2.267-0.896
		c-0.063-0.022-0.129-0.044-0.193-0.067c-0.706-0.256-1.42-0.498-2.14-0.725c-0.27-0.085-0.545-0.16-0.817-0.242
		c-0.52-0.155-1.043-0.306-1.569-0.446c-0.316-0.083-0.635-0.158-0.952-0.236c-0.493-0.121-0.988-0.238-1.486-0.344
		c-0.334-0.07-0.669-0.138-1.004-0.204c-0.494-0.096-0.99-0.184-1.488-0.265c-0.337-0.057-0.675-0.111-1.016-0.16
		c-0.513-0.073-1.03-0.138-1.547-0.196c-0.328-0.037-0.652-0.079-0.982-0.11c-0.569-0.054-1.142-0.094-1.716-0.131
		c-0.281-0.017-0.559-0.042-0.841-0.057c-0.857-0.039-1.717-0.064-2.584-0.064c-0.063,0-0.125,0.004-0.188,0.004h-54.25
		c-5.892,0-10.669,4.776-10.669,10.669c0,5.89,4.776,10.669,10.669,10.669h11.793c-0.091,0.121-0.178,0.244-0.269,0.367
		c-0.306,0.415-0.603,0.838-0.897,1.261c-0.166,0.24-0.337,0.475-0.5,0.719c-0.38,0.562-0.744,1.137-1.102,1.714
		c-0.067,0.111-0.14,0.214-0.206,0.325c-0.417,0.686-0.816,1.384-1.202,2.09c-0.129,0.234-0.247,0.475-0.373,0.713
		c-0.254,0.481-0.507,0.962-0.746,1.452c-0.14,0.29-0.273,0.581-0.409,0.871c-0.21,0.45-0.417,0.9-0.615,1.356
		c-0.133,0.31-0.262,0.623-0.392,0.936c-0.185,0.45-0.363,0.9-0.536,1.356c-0.121,0.319-0.24,0.638-0.354,0.96
		c-0.165,0.465-0.323,0.934-0.476,1.402c-0.103,0.317-0.207,0.632-0.304,0.951c-0.156,0.507-0.297,1.019-0.436,1.532
		c-0.077,0.288-0.16,0.571-0.234,0.859c-0.171,0.671-0.325,1.346-0.469,2.027c-0.029,0.136-0.064,0.269-0.092,0.404
		c-0.002,0.011-0.006,0.021-0.009,0.031H158.929c-0.062-0.304-0.138-0.602-0.205-0.903c-0.111-0.505-0.222-1.01-0.349-1.509
		c-0.094-0.369-0.198-0.73-0.298-1.094c-0.121-0.433-0.239-0.865-0.369-1.292c-0.112-0.376-0.236-0.744-0.356-1.115
		c-0.135-0.411-0.273-0.822-0.417-1.227c-0.131-0.371-0.269-0.739-0.409-1.106c-0.153-0.4-0.309-0.796-0.47-1.192
		c-0.148-0.363-0.296-0.721-0.452-1.08c-0.172-0.398-0.352-0.789-0.536-1.181c-0.159-0.346-0.317-0.691-0.485-1.034
		c-0.201-0.411-0.413-0.813-0.623-1.217c-0.164-0.315-0.322-0.629-0.492-0.94c-0.313-0.571-0.642-1.134-0.975-1.692
		c-0.206-0.346-0.419-0.688-0.634-1.03c-0.282-0.448-0.563-0.898-0.859-1.338c-0.201-0.298-0.409-0.588-0.613-0.879
		c-0.257-0.369-0.513-0.735-0.779-1.096c-0.222-0.3-0.451-0.596-0.681-0.894c-0.262-0.341-0.529-0.682-0.8-1.017
		c-0.239-0.296-0.48-0.586-0.725-0.875c-0.277-0.33-0.559-0.654-0.845-0.975c-0.249-0.282-0.499-0.56-0.753-0.835
		c-0.298-0.323-0.603-0.638-0.91-0.953c-0.254-0.262-0.508-0.525-0.766-0.781c-0.334-0.332-0.676-0.65-1.018-0.971
		c-0.245-0.229-0.483-0.463-0.733-0.686c-0.5-0.454-1.012-0.894-1.532-1.327c-0.244-0.206-0.494-0.406-0.744-0.606
		c-0.458-0.371-0.916-0.737-1.388-1.091c-0.265-0.201-0.538-0.392-0.807-0.586c-0.383-0.28-0.768-0.558-1.16-0.825
		c-0.292-0.202-0.592-0.396-0.889-0.592c-0.379-0.247-0.761-0.496-1.146-0.735c-0.308-0.19-0.619-0.377-0.93-0.562
		c-0.39-0.232-0.782-0.457-1.179-0.677c-0.314-0.177-0.628-0.35-0.945-0.518c-0.411-0.219-0.827-0.429-1.244-0.64
		c-0.31-0.154-0.619-0.31-0.931-0.461c-0.459-0.217-0.923-0.424-1.388-0.627c-0.282-0.123-0.558-0.254-0.842-0.373
		c-0.696-0.291-1.401-0.569-2.111-0.833c-0.154-0.057-0.307-0.109-0.461-0.164c-0.664-0.24-1.331-0.467-2.007-0.68
		c-0.288-0.092-0.579-0.171-0.867-0.256c-0.504-0.15-1.007-0.298-1.517-0.433c-0.326-0.085-0.656-0.162-0.985-0.244
		c-0.481-0.116-0.964-0.232-1.45-0.335c-0.342-0.073-0.686-0.142-1.032-0.208c-0.484-0.094-0.971-0.181-1.461-0.26
		c-0.346-0.059-0.689-0.112-1.038-0.162c-0.506-0.073-1.015-0.136-1.525-0.196c-0.334-0.037-0.666-0.079-1.001-0.11
		c-0.562-0.054-1.129-0.094-1.696-0.129c-0.286-0.019-0.569-0.044-0.857-0.059c-0.851-0.039-1.707-0.064-2.567-0.064
		c-0.004,0-0.009,0-0.015,0l0,0c-0.001,0-0.001,0-0.002,0c-0.867,0-1.727,0.025-2.585,0.064c-0.276,0.015-0.548,0.037-0.823,0.057
		c-0.581,0.035-1.161,0.077-1.738,0.131c-0.321,0.031-0.64,0.07-0.96,0.109c-0.526,0.061-1.05,0.125-1.574,0.201
		c-0.331,0.048-0.66,0.1-0.99,0.155c-0.509,0.083-1.016,0.175-1.521,0.273c-0.325,0.063-0.648,0.127-0.971,0.196
		c-0.512,0.111-1.023,0.229-1.531,0.354c-0.303,0.075-0.605,0.146-0.906,0.225c-0.553,0.146-1.1,0.304-1.644,0.469
		c-0.248,0.073-0.497,0.142-0.741,0.219c-1.578,0.496-3.124,1.063-4.636,1.701c-0.224,0.094-0.443,0.196-0.666,0.293
		c-0.527,0.229-1.052,0.465-1.57,0.711c-0.27,0.129-0.537,0.265-0.803,0.398c-0.465,0.232-0.927,0.465-1.384,0.708
		c-0.28,0.15-0.555,0.302-0.829,0.457c-0.442,0.244-0.877,0.496-1.311,0.754c-0.272,0.16-0.544,0.323-0.813,0.49
		c-0.434,0.271-0.864,0.548-1.291,0.829c-0.251,0.166-0.506,0.33-0.753,0.5c-0.459,0.313-0.909,0.638-1.355,0.964
		c-0.206,0.15-0.415,0.296-0.618,0.448c-0.619,0.465-1.228,0.944-1.825,1.436c-0.025,0.019-0.051,0.039-0.076,0.061
		c-0.625,0.514-1.235,1.048-1.838,1.59c-0.177,0.16-0.347,0.33-0.522,0.492c-0.416,0.385-0.828,0.776-1.232,1.174
		c-0.21,0.21-0.417,0.425-0.625,0.64c-0.356,0.365-0.711,0.734-1.057,1.108c-0.216,0.234-0.426,0.468-0.637,0.706
		c-0.331,0.369-0.654,0.744-0.974,1.123c-0.206,0.244-0.412,0.49-0.612,0.739c-0.318,0.389-0.627,0.785-0.934,1.185
		c-0.187,0.243-0.377,0.488-0.558,0.734c-0.324,0.437-0.637,0.883-0.947,1.331c-0.15,0.217-0.305,0.431-0.453,0.65
		c-0.411,0.612-0.809,1.231-1.195,1.861c-0.036,0.063-0.077,0.121-0.114,0.181c-0.421,0.693-0.825,1.401-1.217,2.115
		c-0.114,0.208-0.221,0.425-0.334,0.638c-0.269,0.507-0.533,1.015-0.785,1.532c-0.131,0.271-0.256,0.544-0.383,0.817
		c-0.22,0.469-0.435,0.938-0.641,1.413c-0.128,0.296-0.251,0.594-0.373,0.892c-0.191,0.464-0.377,0.931-0.556,1.404
		c-0.114,0.304-0.228,0.61-0.337,0.916c-0.173,0.481-0.335,0.967-0.494,1.456c-0.098,0.3-0.197,0.599-0.289,0.9
		c-0.16,0.527-0.308,1.06-0.454,1.596c-0.071,0.267-0.15,0.529-0.218,0.798c-0.18,0.713-0.346,1.43-0.497,2.153
		c-0.021,0.094-0.046,0.186-0.065,0.282c-0.002,0.013-0.006,0.027-0.01,0.042H21.337V220.155h43.768
		c5.892,0,10.669-4.779,10.669-10.669c0-5.892-4.776-10.669-10.669-10.669H21.337v-21.331h255.997h31.998v110.792
		c0,5.892,4.776,10.669,10.669,10.669h170.662v91.869H457.6V390.816z"/>
	<path style="fill:#000003;" d="M251.762,241.827l-25.338-7.577l-17.061-23.338c-2.038-2.788-5.314-4.43-8.754-4.37
		c-3.452,0.046-6.67,1.758-8.635,4.601l-15.039,21.752l-27.467,9.016c-3.282,1.078-5.839,3.675-6.863,6.974
		c-1.024,3.299-0.386,6.889,1.708,9.633l16.044,21.029l0.084,28.908c0.011,3.452,1.692,6.689,4.512,8.681
		c2.821,1.992,6.43,2.499,9.69,1.355l24.957-8.76l27.523,8.85c1.069,0.344,2.17,0.512,3.265,0.512c2.273,0,4.519-0.728,6.386-2.121
		c2.767-2.068,4.361-5.347,4.28-8.8l-0.622-26.438l16.923-23.44c2.022-2.801,2.563-6.408,1.452-9.677
		C257.697,245.349,255.072,242.817,251.762,241.827z M221.032,272.154c-1.362,1.888-2.071,4.169-2.015,6.497l0.353,15.024
		l-16.652-5.354c-1.063-0.341-2.164-0.512-3.266-0.512c-1.196,0-2.391,0.201-3.535,0.602l-14.183,4.978l-0.051-17.491
		c-0.007-2.328-0.775-4.589-2.187-6.439l-9.119-11.952l16.62-5.455c2.211-0.725,4.125-2.155,5.449-4.069l8.547-12.363l10.324,14.121
		c1.373,1.878,3.324,3.257,5.555,3.924l14.398,4.307L221.032,272.154z"/>
	<path style="fill:#000003;" d="M320.254,348.152h-0.253c-5.892,0-10.669,4.776-10.669,10.669c0,5.89,4.776,10.669,10.669,10.669
		h0.253c5.891,0,10.669-4.779,10.669-10.669C330.923,352.928,326.146,348.152,320.254,348.152z"/>
	<path style="fill:#000003;" d="M96.005,198.82h-0.253c-5.892,0-10.669,4.776-10.669,10.669c0,5.89,4.776,10.669,10.669,10.669
		h0.253c5.891,0,10.669-4.779,10.669-10.669C106.673,203.597,101.897,198.82,96.005,198.82z"/>
	<path style="fill:#000003;" d="M298.665,92.157c5.892,0,10.669-4.779,10.669-10.669V67.85c0-5.89-4.776-10.669-10.669-10.669
		s-10.669,4.779-10.669,10.669v13.638C287.997,87.378,292.774,92.157,298.665,92.157z"/>
	<path style="fill:#000003;" d="M245.868,107.777c2.084,2.084,4.814,3.126,7.545,3.126c2.73,0,5.459-1.042,7.543-3.124
		c4.166-4.167,4.167-10.92,0.002-15.089l-9.642-9.646c-4.166-4.167-10.92-4.167-15.089-0.002c-4.166,4.167-4.167,10.92-0.002,15.089
		L245.868,107.777z"/>
	<path style="fill:#000003;" d="M343.92,110.902c2.73,0,5.461-1.042,7.545-3.126l9.641-9.646c4.165-4.167,4.163-10.923-0.003-15.089
		c-4.166-4.165-10.922-4.163-15.088,0.002l-9.641,9.646c-4.166,4.167-4.165,10.923,0.002,15.089
		C338.461,109.861,341.19,110.902,343.92,110.902z"/>
</g>
</svg>