<svg width="22" height="19" viewBox="0 0 22 19" fill="none" xmlns="http://www.w3.org/2000/svg">
<path d="M7.3775 2.3667L9.9425 4.9242L10.3775 5.3667H20V17.3667H2V2.3667H7.3775ZM7.3775 0.8667H2C1.60218 0.8667 1.22064 1.02473 0.93934 1.30604C0.658035 1.58734 0.5 1.96888 0.5 2.3667V17.3667C0.5 17.7645 0.658035 18.1461 0.93934 18.4274C1.22064 18.7087 1.60218 18.8667 2 18.8667H20C20.3978 18.8667 20.7794 18.7087 21.0607 18.4274C21.342 18.1461 21.5 17.7645 21.5 17.3667V5.3667C21.5 4.96887 21.342 4.58734 21.0607 4.30604C20.7794 4.02474 20.3978 3.8667 20 3.8667H11L8.4425 1.3092C8.30296 1.16882 8.13701 1.05745 7.95423 0.981507C7.77144 0.905562 7.57543 0.866543 7.3775 0.8667Z" fill="white"/>
</svg>
