<svg width="19" height="22" viewBox="0 0 19 22" fill="none" xmlns="http://www.w3.org/2000/svg">
<path d="M12.75 21.6333C11.5633 21.6333 10.4033 21.2814 9.41658 20.6221C8.42989 19.9628 7.66085 19.0258 7.20673 17.9294C6.7526 16.833 6.63378 15.6266 6.86529 14.4628C7.0968 13.2989 7.66825 12.2298 8.50736 11.3907C9.34648 10.5515 10.4156 9.9801 11.5795 9.74859C12.7433 9.51708 13.9497 9.6359 15.0461 10.09C16.1425 10.5442 17.0795 11.3132 17.7388 12.2999C18.3981 13.2866 18.75 14.4466 18.75 15.6333C18.75 17.2246 18.1179 18.7507 16.9926 19.8759C15.8674 21.0012 14.3413 21.6333 12.75 21.6333ZM12.75 11.1333C11.86 11.1333 10.99 11.3972 10.2499 11.8917C9.50992 12.3862 8.93314 13.089 8.59254 13.9112C8.25195 14.7335 8.16284 15.6383 8.33647 16.5112C8.5101 17.3841 8.93869 18.1859 9.56802 18.8153C10.1974 19.4446 10.9992 19.8732 11.8721 20.0468C12.745 20.2205 13.6498 20.1314 14.4721 19.7908C15.2943 19.4502 15.9971 18.8734 16.4916 18.1334C16.9861 17.3933 17.25 16.5233 17.25 15.6333C17.25 14.4398 16.7759 13.2952 15.932 12.4513C15.0881 11.6074 13.9435 11.1333 12.75 11.1333Z" fill="white"/>
<path d="M13.9425 17.8833L12 15.9408V12.6333H13.5V15.3258L15 16.8258L13.9425 17.8833Z" fill="white"/>
<path d="M18 3.6333C18 3.23548 17.842 2.85395 17.5607 2.57264C17.2794 2.29134 16.8978 2.1333 16.5 2.1333H13.5V0.633301H12V2.1333H6V0.633301H4.5V2.1333H1.5C1.10218 2.1333 0.720644 2.29134 0.43934 2.57264C0.158035 2.85395 0 3.23548 0 3.6333V18.6333C0 19.0311 0.158035 19.4127 0.43934 19.694C0.720644 19.9753 1.10218 20.1333 1.5 20.1333H4.5V18.6333H1.5V3.6333H4.5V5.1333H6V3.6333H12V5.1333H13.5V3.6333H16.5V8.1333H18V3.6333Z" fill="white"/>
</svg>
