<svg width="20" height="18" viewBox="0 0 20 18" fill="none" xmlns="http://www.w3.org/2000/svg">
<path d="M17.5 3H14V2C13.9992 1.46981 13.7882 0.961564 13.4133 0.586663C13.0384 0.211762 12.5302 0.0007935 12 0H8C7.46981 0.0007935 6.96156 0.211762 6.58666 0.586663C6.21176 0.961564 6.00079 1.46981 6 2V3H2.5C1.83712 3.00053 1.20154 3.26409 0.732818 3.73282C0.264092 4.20154 0.000529668 4.83712 0 5.5V15.5C0.000529668 16.1629 0.264092 16.7985 0.732818 17.2672C1.20154 17.7359 1.83712 17.9995 2.5 18H17.5C18.1629 17.9995 18.7985 17.7359 19.2672 17.2672C19.7359 16.7985 19.9995 16.1629 20 15.5V5.5C19.9995 4.83712 19.7359 4.20154 19.2672 3.73282C18.7985 3.26409 18.1629 3.00053 17.5 3ZM7 2C7 1.73478 7.10536 1.48043 7.29289 1.29289C7.48043 1.10536 7.73478 1 8 1H12C12.2652 1 12.5196 1.10536 12.7071 1.29289C12.8946 1.48043 13 1.73478 13 2V3H7V2ZM19 15.5C19 15.8978 18.842 16.2794 18.5607 16.5607C18.2794 16.842 17.8978 17 17.5 17H2.5C2.10218 17 1.72064 16.842 1.43934 16.5607C1.15804 16.2794 1 15.8978 1 15.5V9.027L6.842 10.975C6.89302 10.9916 6.94635 11 7 11H13C13.0537 11 13.107 10.9916 13.158 10.975L19 9.027V15.5ZM19 8.006C18.9466 8.00401 18.8932 8.01076 18.842 8.026L12.919 10H7.081L1.158 8.025C1.10678 8.00976 1.0534 8.00301 1 8.005V5.5C1 5.10218 1.15804 4.72064 1.43934 4.43934C1.72064 4.15804 2.10218 4 2.5 4H17.5C17.8978 4 18.2794 4.15804 18.5607 4.43934C18.842 4.72064 19 5.10218 19 5.5V8.006Z" fill="white"/>
</svg>
