<svg version="1.0" xmlns="http://www.w3.org/2000/svg"
 width="512.000000pt" height="512.000000pt" viewBox="0 0 512.000000 512.000000"
 preserveAspectRatio="xMidYMid meet">
<g transform="translate(0.000000,512.000000) scale(0.100000,-0.100000)"
stroke="none">
<path d="M2514 4261 c-18 -5 -47 -17 -65 -29 -52 -32 -914 -902 -935 -942 -10
-21 -17 -57 -17 -91 0 -109 81 -198 187 -207 103 -8 99 -12 504 392 l372 371
368 -367 c202 -201 382 -374 401 -383 25 -12 51 -16 96 -13 78 5 132 38 171
104 33 56 37 139 10 194 -23 45 -888 914 -941 945 -46 27 -106 37 -151 26z"/>
<path d="M1631 2119 c-81 -32 -134 -111 -134 -198 0 -34 7 -70 17 -91 24 -47
889 -914 946 -948 34 -20 58 -27 100 -27 42 0 66 7 100 27 57 34 922 901 946
948 10 21 17 57 17 91 0 109 -81 198 -187 207 -103 8 -99 12 -504 -392 l-372
-371 -368 367 c-249 249 -379 372 -404 383 -41 17 -120 19 -157 4z"/>
</g>
</svg>